<svg width="32" height="33" viewBox="0 0 32 33" fill="none" xmlns="http://www.w3.org/2000/svg">
<g clip-path="url(#clip0_4_87)">
<path d="M19.6064 20.1763L30.1118 8.67236L31.9543 10.355L19.7312 23.7397L12.9878 17.321L14.708 15.5137L19.6064 20.1763ZM29.0085 17.281L31.9294 14.0823C31.8355 17.2051 30.833 21.7253 28.251 25.6042C26.8667 27.6838 25.1965 29.3284 23.2866 30.4922C21.1003 31.8245 18.6382 32.5 15.9688 32.5C13.4959 32.5 11.1541 31.8223 9.00879 30.4856C7.13745 29.3196 5.46191 27.6843 4.02881 25.6257C1.5437 22.0557 0 17.4478 0 13.5994C0 11.395 0.738037 9.30566 2.07837 7.71606C3.19922 6.38696 4.63843 5.53174 6.21948 5.23413C5.86011 4.21313 5.67651 3.0896 5.67651 1.87231V0.535645L7.00977 0.627686C7.11157 0.634766 9.52808 0.8125 11.9697 1.94067C13.0791 2.45337 14.019 3.07764 14.7837 3.80322V0.5H17.2788V8.76416C17.7412 8.51025 18.2031 8.12109 18.7849 7.61499C20.0652 6.50171 21.6587 5.11597 24.4522 5.11597C25.9858 5.11597 27.4353 5.62183 28.6587 6.56372L26.96 8.42383C26.2227 7.90747 25.3657 7.61108 24.4522 7.61108C22.5918 7.61108 21.5864 8.48535 20.4221 9.4978C19.2876 10.4846 18.0017 11.6028 15.9688 11.6028L15.9172 11.6018C15.8142 11.5977 13.366 11.4836 10.8977 10.2751C9.47656 9.57935 8.33496 8.66919 7.48535 7.56885V7.61108C4.73364 7.61108 2.49512 10.2974 2.49512 13.5994C2.49512 16.9138 3.90088 21.0747 6.07642 24.2C7.91992 26.8481 11.1326 30.0049 15.9688 30.0049C24.0327 30.0049 27.8169 22.7961 29.0085 17.281ZM8.29858 3.34595C8.67993 5.44434 9.9187 7.01782 11.9951 8.03418C12.9678 8.5105 13.9404 8.77734 14.6858 8.92603C14.4641 6.84399 13.2012 5.2583 10.9231 4.20557C9.98242 3.771 9.04053 3.50562 8.29858 3.34595Z" fill="#1C3F3A"/>
</g>
<defs>
<clipPath id="clip0_4_87">
<rect width="32" height="32" fill="white" transform="translate(0 0.5)"/>
</clipPath>
</defs>
</svg>
