<svg width="28" height="33" viewBox="0 0 28 33" fill="none" xmlns="http://www.w3.org/2000/svg">
<path d="M4 17C4 15.625 5.0625 14.5 6.5 14.5H11.5C12.875 14.5 14 15.625 14 17V22C14 23.4375 12.875 24.5 11.5 24.5H6.5C5.0625 24.5 4 23.4375 4 22V17ZM6 17V22C6 22.3125 6.1875 22.5 6.5 22.5H11.5C11.75 22.5 12 22.3125 12 22V17C12 16.75 11.75 16.5 11.5 16.5H6.5C6.1875 16.5 6 16.75 6 17ZM8 4.5H20V1.5C20 1 20.4375 0.5 21 0.5C21.5 0.5 22 1 22 1.5V4.5H24C26.1875 4.5 28 6.3125 28 8.5V28.5C28 30.75 26.1875 32.5 24 32.5H4C1.75 32.5 0 30.75 0 28.5V8.5C0 6.3125 1.75 4.5 4 4.5H6V1.5C6 1 6.4375 0.5 7 0.5C7.5 0.5 8 1 8 1.5V4.5ZM2 28.5C2 29.625 2.875 30.5 4 30.5H24C25.0625 30.5 26 29.625 26 28.5V12.5H2V28.5ZM2 8.5V10.5H26V8.5C26 7.4375 25.0625 6.5 24 6.5H4C2.875 6.5 2 7.4375 2 8.5Z" fill="#1C3F3A"/>
</svg>
