<svg width="74" height="52" viewBox="0 0 74 52" fill="none" xmlns="http://www.w3.org/2000/svg">
<g clip-path="url(#clip0_34_38)">
<path d="M37.4012 39.0557C37.6353 38.9761 37.888 38.3977 37.8409 38.129L37.8347 15.0501L41.1156 14.5501C40.8877 21.0801 41.7609 28.2855 40.8964 34.7284C40.832 35.2135 40.183 36.9275 40.2164 37.1091C40.3737 37.9586 43.5753 39.0544 44.3383 39.0544H53.1938C45.8976 31.4647 51.1985 16.8698 61.2443 14.8623C65.2522 14.0613 69.9004 14.8188 74.0012 14.5513V33.1463C74.0012 38.6502 66.9056 41.8443 62.302 42.1689C59.5004 42.3667 45.3179 42.6167 43.4998 42.0122C41.6816 41.4077 40.5038 39.9102 39.6318 38.3119C38.7413 40.1328 36.0066 42.414 33.9346 42.414H6.87134V39.0557H20.1856C25.7392 39.0557 27.5995 32.3105 27.0421 27.8166C25.8705 18.3711 13.9942 13.0277 8.3551 21.8911L6.89735 20.8351C11.8973 12.8299 25.8816 13.8735 28.8293 23.1623C30.7045 29.0741 28.1618 35.1178 23.7167 39.0557H37.4025H37.4012ZM70.7798 17.9109H59.1995C49.1314 17.9109 49.2193 38.4723 62.1893 39.7845C65.8058 40.1502 70.7798 39.6029 70.7798 34.8889V17.9109Z" fill="#1C3F3A"/>
<path d="M3.35271 0L3.35024 34.8852C3.20781 36.3081 3.00221 37.6912 2.54147 39.0482C2.40524 39.4487 0.530093 43.8344 0 41.9811L0.00866975 0.496281L3.35271 0Z" fill="#1C3F3A"/>
<path d="M34.5315 47.2934C38.4007 46.5359 38.5543 52.3906 34.8858 51.9789C32.3071 51.689 32.1957 47.7511 34.5315 47.2934Z" fill="#1C3F3A"/>
<path d="M41.0958 47.2934C44.9563 46.5061 45.1569 52.393 41.45 51.9789C38.8602 51.689 38.8119 47.7598 41.0958 47.2934Z" fill="#1C3F3A"/>
<path d="M63.1628 11.5326C63.5616 8.78504 64.7642 6.72031 67.1249 5.40436C64.566 6.24517 62.2376 8.51264 62.1571 12.922C62.1286 12.9195 62.0828 12.9244 62.0766 12.912C61.4004 11.2453 60.8765 9.53381 61.196 7.7166C61.6716 5.02002 63.4563 2.72892 66.4672 2.05602C67.9411 1.72641 69.4162 1.54979 70.9197 1.56845C71.4721 1.57466 72.0158 1.54606 72.5484 1.35451C73.1838 1.12814 73.538 0.662951 73.6965 0C73.8947 0.161695 73.8835 0.330854 73.9009 0.473892C74.1114 2.27244 74.0309 4.04736 73.242 5.70536C72.6079 7.03748 71.6344 8.09348 70.4194 8.94051C68.7473 10.1072 66.8549 10.6159 64.8794 10.9095C64.3159 10.9928 63.7734 11.152 63.1653 11.5351V11.5326H63.1628Z" fill="#1DADB3"/>
</g>
<defs>
<clipPath id="clip0_34_38">
<rect width="74" height="52" fill="white"/>
</clipPath>
</defs>
</svg>
