<svg width="374" height="199" viewBox="0 0 374 199" fill="none" xmlns="http://www.w3.org/2000/svg">
<g clip-path="url(#clip0_4_143)">
<g opacity="0.4" filter="url(#filter0_f_4_143)">
<path d="M32.0753 -26.3515C30.563 -72.8353 140.989 -33.5828 187.618 -35.0997L201.458 -35.5498C248.088 -37.0667 326.225 -72.4394 338.425 -39.9066C350.625 -7.37368 321.48 14.9922 295.726 28.5475C269.97 42.1029 186.022 49.2076 186.022 49.2076C139.394 50.7245 33.5874 20.1322 32.0753 -26.3515Z" fill="url(#paint0_linear_4_143)"/>
</g>
</g>
<defs>
<filter id="filter0_f_4_143" x="-79.6927" y="-165.37" width="532.734" height="326.384" filterUnits="userSpaceOnUse" color-interpolation-filters="sRGB">
<feFlood flood-opacity="0" result="BackgroundImageFix"/>
<feBlend mode="normal" in="SourceGraphic" in2="BackgroundImageFix" result="shape"/>
<feGaussianBlur stdDeviation="55.8763" result="effect1_foregroundBlur_4_143"/>
</filter>
<linearGradient id="paint0_linear_4_143" x1="329.637" y1="8.56083" x2="227.067" y2="-121.092" gradientUnits="userSpaceOnUse">
<stop stop-color="#FFD700"/>
<stop offset="1" stop-color="#04AEB5"/>
</linearGradient>
<clipPath id="clip0_4_143">
<path d="M-6.10352e-05 32C-6.10352e-05 20.799 -6.10352e-05 15.1984 2.17981 10.9202C4.09728 7.15695 7.15689 4.09734 10.9201 2.17987C15.1984 0 20.7989 0 31.9999 0H342.12C353.321 0 358.921 0 363.2 2.17987C366.963 4.09734 370.023 7.15695 371.94 10.9202C374.12 15.1984 374.12 20.799 374.12 32V199H-6.10352e-05V32Z" fill="white"/>
</clipPath>
</defs>
</svg>
